<svg width="77" height="73" xmlns="http://www.w3.org/2000/svg">
 <title/>

 <g>
  <title>background</title>
  <rect fill="none" id="canvas_background" height="402" width="582" y="-1" x="-1"/>
 </g>
 <g>
  <title>Layer 1</title>
  <path id="svg_1" d="m38.5,67.5l-27.7,-27.7c-7.8,-8 -7.6,-20.8 0.4,-28.6c7.5,-7.3 19.4,-7.7 27.3,-0.8c8,-6.9 20,-6.5 27.5,1l0,0c7.8,7.8 7.9,20.5 0.2,28.4l0,0l-27.7,27.7zm-25.2,-29.5l25.3,25.3l25.4,-25.4c6.7,-6.7 6.7,-17.7 0,-24.4c0,0 0,0 0,0l0,0c-6.7,-6.7 -17.6,-6.7 -24.4,0l-1.1,1.1l-1.1,-1.1c-6.7,-6.8 -17.6,-6.8 -24.4,-0.2s-6.8,17.6 -0.2,24.4l0.2,0.1l0.3,0.2z"/>
 </g>
</svg>